# xmcd CD database file
#
# Track frame offsets:
#	150
#	21427
#	48444
#	86709
#	113234
#	157994
#	192612
#	217542
#
# Disc length: 3231 seconds
#
# Revision: 0
# Processed by: cddbd v1.5.2PL0 Copyright (c) Steve Scherf et al.
# Submitted via: CDex 1.70beta3
#
DISCID=650c9d08
DTITLE=Toshiko – Mariano Quartet - Live at Birdland
DYEAR=1900
DGENRE=Jazz
TTITLE0=Deep River
TTITLE1=Song of the Farm
TTITLE2=Blues for Father
TTITLE3=When You Meet Her
TTITLE4=Elegy
TTITLE5=When Johnny Comes Marching Home
TTITLE6=Tempus Fugit
TTITLE7=Blues for Father
EXTD=
EXTT0=
EXTT1=
EXTT2=
EXTT3=
EXTT4=
EXTT5=
EXTT6=
EXTT7=
PLAYORDER=
